<?xml version="1.0" encoding="UTF-8" standalone="no"?>
<!DOCTYPE svg PUBLIC "-//W3C//DTD SVG 1.1//EN"
 "http://www.w3.org/Graphics/SVG/1.1/DTD/svg11.dtd">
<!-- Generated by graphviz version 2.40.1 (20161225.0304)
 -->
<!-- Title: dependencies Pages: 1 -->
<svg width="658pt" height="290pt"
 viewBox="0.00 0.00 658.00 290.00" xmlns="http://www.w3.org/2000/svg" xmlns:xlink="http://www.w3.org/1999/xlink">
<g id="graph0" class="graph" transform="scale(1 1) rotate(0) translate(4 286)">
<title>dependencies</title>
<polygon fill="#ffffff" stroke="transparent" points="-4,4 -4,-286 654,-286 654,4 -4,4"/>
<text text-anchor="start" x="304.0091" y="-42.4" font-family="sans-serif" font-weight="bold" font-size="14.00" fill="#000000">Legend</text>
<polygon fill="#ffffb3" stroke="transparent" points="91,-10 91,-30 111,-30 111,-10 91,-10"/>
<text text-anchor="start" x="114.629" y="-15.4" font-family="sans-serif" font-size="14.00" fill="#000000"> &#160;Declarations</text>
<polygon fill="#8dd3c7" stroke="transparent" points="204,-10 204,-30 224,-30 224,-10 204,-10"/>
<text text-anchor="start" x="227.7251" y="-15.4" font-family="sans-serif" font-size="14.00" fill="#000000"> &#160;Module</text>
<polygon fill="#80b1d3" stroke="transparent" points="290,-10 290,-30 310,-30 310,-10 290,-10"/>
<text text-anchor="start" x="313.7812" y="-15.4" font-family="sans-serif" font-size="14.00" fill="#000000"> &#160;Bootstrap</text>
<polygon fill="#fdb462" stroke="transparent" points="387,-10 387,-30 407,-30 407,-10 387,-10"/>
<text text-anchor="start" x="410.6732" y="-15.4" font-family="sans-serif" font-size="14.00" fill="#000000"> &#160;Providers</text>
<polygon fill="#fb8072" stroke="transparent" points="483,-10 483,-30 503,-30 503,-10 483,-10"/>
<text text-anchor="start" x="506.7258" y="-15.4" font-family="sans-serif" font-size="14.00" fill="#000000"> &#160;Exports</text>
<g id="clust1" class="cluster">
<title>cluster_AppModule</title>
<polygon fill="none" stroke="#000000" stroke-dasharray="1,5" points="8,-70 8,-274 290,-274 290,-70 8,-70"/>
</g>
<g id="clust2" class="cluster">
<title>cluster_AppModule_declarations</title>
<polygon fill="none" stroke="#000000" points="16,-78 16,-130 138,-130 138,-78 16,-78"/>
</g>
<g id="clust4" class="cluster">
<title>cluster_AppModule_imports</title>
<polygon fill="none" stroke="#000000" points="146,-78 146,-130 282,-130 282,-78 146,-78"/>
</g>
<g id="clust6" class="cluster">
<title>cluster_AppModule_bootstrap</title>
<polygon fill="none" stroke="#000000" points="84,-214 84,-266 208,-266 208,-214 84,-214"/>
</g>
<g id="clust8" class="cluster">
<title>cluster_NgxWheelModule</title>
<polygon fill="none" stroke="#000000" stroke-dasharray="1,5" points="298,-138 298,-206 642,-206 642,-138 298,-138"/>
</g>
<g id="clust9" class="cluster">
<title>cluster_NgxWheelModule_declarations</title>
<polygon fill="none" stroke="#000000" points="476,-146 476,-198 634,-198 634,-146 476,-146"/>
</g>
<g id="clust12" class="cluster">
<title>cluster_NgxWheelModule_exports</title>
<polygon fill="none" stroke="#000000" points="306,-146 306,-198 468,-198 468,-146 306,-146"/>
</g>
<!-- AppComponent -->
<g id="node1" class="node">
<title>AppComponent</title>
<polygon fill="#ffffb3" stroke="#000000" points="129.9399,-122 24.0601,-122 24.0601,-86 129.9399,-86 129.9399,-122"/>
<text text-anchor="middle" x="77" y="-99.8" font-family="Times,serif" font-size="14.00" fill="#000000">AppComponent</text>
</g>
<!-- AppModule -->
<g id="node2" class="node">
<title>AppModule</title>
<polygon fill="#8dd3c7" stroke="#000000" points="187.6571,-190 184.6571,-194 163.6571,-194 160.6571,-190 104.3429,-190 104.3429,-154 187.6571,-154 187.6571,-190"/>
<text text-anchor="middle" x="146" y="-167.8" font-family="Times,serif" font-size="14.00" fill="#000000">AppModule</text>
</g>
<!-- AppComponent&#45;&gt;AppModule -->
<g id="edge1" class="edge">
<title>AppComponent&#45;&gt;AppModule</title>
<path fill="none" stroke="#000000" d="M116.9457,-122.2228C116.9457,-122.2228 116.9457,-143.7269 116.9457,-143.7269"/>
<polygon fill="#000000" stroke="#000000" points="113.4457,-143.7269 116.9457,-153.7269 120.4457,-143.727 113.4457,-143.7269"/>
</g>
<!-- AppComponent  -->
<g id="node4" class="node">
<title>AppComponent </title>
<polygon fill="#80b1d3" stroke="#000000" points="200.439,-258 91.561,-258 91.561,-222 200.439,-222 200.439,-258"/>
<text text-anchor="middle" x="146" y="-235.8" font-family="Times,serif" font-size="14.00" fill="#000000">AppComponent </text>
</g>
<!-- AppModule&#45;&gt;AppComponent  -->
<g id="edge3" class="edge">
<title>AppModule&#45;&gt;AppComponent </title>
<path fill="none" stroke="#000000" stroke-dasharray="1,5" d="M146,-190.2228C146,-190.2228 146,-211.7269 146,-211.7269"/>
<polygon fill="#000000" stroke="#000000" points="142.5001,-211.7269 146,-221.7269 149.5001,-211.727 142.5001,-211.7269"/>
</g>
<!-- NgxWheelModule -->
<g id="node3" class="node">
<title>NgxWheelModule</title>
<polygon fill="#8dd3c7" stroke="#000000" points="274.191,-122 271.191,-126 250.191,-126 247.191,-122 153.809,-122 153.809,-86 274.191,-86 274.191,-122"/>
<text text-anchor="middle" x="214" y="-99.8" font-family="Times,serif" font-size="14.00" fill="#000000">NgxWheelModule</text>
</g>
<!-- NgxWheelModule&#45;&gt;AppModule -->
<g id="edge2" class="edge">
<title>NgxWheelModule&#45;&gt;AppModule</title>
<path fill="none" stroke="#000000" d="M170.8664,-122.2228C170.8664,-122.2228 170.8664,-143.7269 170.8664,-143.7269"/>
<polygon fill="#000000" stroke="#000000" points="167.3665,-143.7269 170.8664,-153.7269 174.3665,-143.727 167.3665,-143.7269"/>
</g>
<!-- NgxWheelComponent  -->
<g id="node6" class="node">
<title>NgxWheelComponent </title>
<polygon fill="#fb8072" stroke="#000000" points="459.9742,-190 314.0258,-190 314.0258,-154 459.9742,-154 459.9742,-190"/>
<text text-anchor="middle" x="387" y="-167.8" font-family="Times,serif" font-size="14.00" fill="#000000">NgxWheelComponent </text>
</g>
<!-- NgxWheelModule&#45;&gt;NgxWheelComponent  -->
<g id="edge5" class="edge">
<title>NgxWheelModule&#45;&gt;NgxWheelComponent </title>
<path fill="none" stroke="#000000" stroke-dasharray="5,2" d="M237.2825,-122.2228C237.2825,-142.3652 237.2825,-172 237.2825,-172 237.2825,-172 303.8956,-172 303.8956,-172"/>
<polygon fill="#000000" stroke="#000000" points="303.8956,-175.5001 313.8956,-172 303.8955,-168.5001 303.8956,-175.5001"/>
</g>
<!-- NgxWheelComponent -->
<g id="node5" class="node">
<title>NgxWheelComponent</title>
<polygon fill="#ffffb3" stroke="#000000" points="625.9734,-190 484.0266,-190 484.0266,-154 625.9734,-154 625.9734,-190"/>
<text text-anchor="middle" x="555" y="-167.8" font-family="Times,serif" font-size="14.00" fill="#000000">NgxWheelComponent</text>
</g>
<!-- NgxWheelComponent&#45;&gt;NgxWheelModule -->
<g id="edge4" class="edge">
<title>NgxWheelComponent&#45;&gt;NgxWheelModule</title>
<path fill="none" stroke="#000000" d="M555,-153.7772C555,-133.6348 555,-104 555,-104 555,-104 284.179,-104 284.179,-104"/>
<polygon fill="#000000" stroke="#000000" points="284.179,-100.5001 274.179,-104 284.179,-107.5001 284.179,-100.5001"/>
</g>
</g>
</svg>
